<svg id="Capa_1" enable-background="new 0 0 512 512" height="512" viewBox="0 0 512 512" width="512" xmlns="http://www.w3.org/2000/svg"><g><g fill="#97d729"><path d="m371.138 133.653-66.196-114.658-16.934 12.01-34.05 58.971 2.603 12.811 45.635 79.042-19.649 11.345c-5.641 3.257-4.461 11.721 1.855 13.311l86.939 21.891c3.801.957 7.674-1.279 8.746-5.049l24.511-86.237c1.781-6.265-4.96-11.519-10.601-8.262l-12.954 7.479c-3.468 2.002-7.903.814-9.905-2.654z"/><path d="m325.984 372.318v-15.269c0-6.513-7.92-9.724-12.456-5.049l-62.428 64.346c-2.729 2.813-2.729 7.285 0 10.098l62.428 64.346c4.535 4.675 12.456 1.464 12.456-5.049v-15.128c0-4.005 3.246-7.251 7.251-7.251h131.505l2.86-18.756-37.551-65.036h-13.69-83.124c-4.004-.001-7.251-3.248-7.251-7.252z"/><path d="m96.762 379.569 42.186-73.071c2.002-3.468 6.437-4.657 9.905-2.654l12.911 7.454c5.641 3.257 12.381-1.997 10.601-8.262l-24.511-86.237c-1.072-3.77-4.945-6.006-8.746-5.049l-86.939 21.89c-6.316 1.59-7.496 10.055-1.855 13.311l13.413 7.744c3.468 2.002 4.656 6.437 2.654 9.905l-66.381 114.969 12.5 10h71z"/></g><path d="m86.622 238.009 35.179 20.314-70.005 121.25h-51.795l66.38-114.971c2.002-3.468.814-7.903-2.654-9.905l-13.412-7.744c-5.64-3.257-4.46-11.721 1.855-13.311l86.934-21.893c3.801-.957 7.674 1.279 8.746 5.049l1.536 5.405z" fill="#92ce20"/><path d="m338.705 463.356h-5.469c-4.005 0-7.251 3.246-7.251 7.251v15.136c0 6.513-7.92 9.724-12.456 5.049l-62.43-64.351c-2.729-2.813-2.729-7.286 0-10.099l62.43-64.342c4.535-4.674 12.455-1.464 12.455 5.049v15.272c0 4.005 3.246 7.251 7.251 7.251h5.335l-40.576 41.819z" fill="#92ce20"/><path d="m304.942 18.995h-92.575c-2.591 0-4.985 1.382-6.28 3.626l-68.022 117.823c-2.002 3.468-.814 7.903 2.654 9.905l60.003 34.643c3.468 2.002 7.903.814 9.905-2.654z" fill="#c6ea7c"/><path d="m186.233 146.727 33.718 19.464-9.323 16.147c-2.002 3.468-6.437 4.656-9.905 2.654l-60.004-34.641c-3.468-2.002-4.657-6.437-2.654-9.905l68.026-117.83c1.295-2.244 3.689-3.626 6.28-3.626h47.608z" fill="#b2e254"/><path d="m381.621 217.923-1.536 5.405c-1.072 3.77-4.945 6.006-8.746 5.049l-86.936-21.892c-6.317-1.591-7.495-10.056-1.854-13.312l19.651-11.34-45.641-79.048 48.386-83.793 25.897 44.854-22.489 38.939 45.641 79.048-35.148 20.283z" fill="#92ce20"/><path d="m433.089 255.461-60.006 34.644c-3.468 2.002-4.656 6.437-2.654 9.905l94.311 163.35 46.288-80.166c1.295-2.244 1.295-5.008 0-7.252l-68.034-117.828c-2.002-3.467-6.436-4.655-9.905-2.653z" fill="#c6ea7c"/><path d="m490.638 418.502-25.897 44.854-94.307-163.346c-2.002-3.468-.814-7.903 2.654-9.905l60.004-34.64c3.468-2.002 7.903-.814 9.905 2.654l9.323 16.148-33.718 19.464z" fill="#b2e254"/><path d="m96.762 379.569h-96.762l46.288 80.166c1.295 2.243 3.689 3.625 6.28 3.625h136.056c4.005 0 7.251-3.246 7.251-7.251v-69.289c0-4.005-3.246-7.251-7.251-7.251z" fill="#c6ea7c"/><path d="m51.795 379.573 48.376 83.782h-47.608c-2.591 0-4.984-1.382-6.28-3.625l-46.282-80.157z" fill="#b2e254"/></g></svg>