<svg id="Capa_1" enable-background="new 0 0 512 512" height="512" viewBox="0 0 512 512" width="512" xmlns="http://www.w3.org/2000/svg"><g><path d="m87.215 256.507c-48.167 0-87.215 39.047-87.215 87.215s39.048 87.215 87.215 87.215c48.168 0 87.215-39.048 87.215-87.215s-39.047-87.215-87.215-87.215zm0 143.648c-31.118 0-56.433-25.316-56.433-56.433s25.316-56.433 56.433-56.433 56.433 25.316 56.433 56.433-25.315 56.433-56.433 56.433z" fill="#528fd8"/><path d="m424.785 256.507c-48.168 0-87.215 39.048-87.215 87.215s39.048 87.215 87.215 87.215c48.168 0 87.215-39.048 87.215-87.215s-39.048-87.215-87.215-87.215zm0 143.648c-31.118 0-56.433-25.316-56.433-56.433s25.316-56.433 56.433-56.433 56.433 25.316 56.433 56.433-25.316 56.433-56.433 56.433z" fill="#528fd8"/><g><path d="m404.264 351.446h-111.559c-4.268 0-7.726-3.459-7.726-7.726s3.459-7.726 7.726-7.726h111.558c4.268 0 7.726 3.459 7.726 7.726.001 4.267-3.458 7.726-7.725 7.726z" fill="#8ac9fe"/></g><g fill="#8ac9fe"><path d="m419.034 322.577-86.911-120.203 14.692-31.205c1.818-3.861.162-8.464-3.698-10.282-3.864-1.817-8.464-.161-10.282 3.699l-14.544 30.89h-108.752c-4.268 0-7.726 3.459-7.726 7.726s3.459 7.726 7.726 7.726h101.477l-35.891 76.228c-1.818 3.861-.162 8.464 3.698 10.282 1.064.5 2.184.738 3.287.738 2.899 0 5.678-1.64 6.995-4.437l35.499-75.394 81.908 113.283c1.51 2.09 3.872 3.201 6.268 3.201 1.568 0 3.152-.476 4.52-1.465 3.458-2.499 4.234-7.329 1.734-10.787z"/><path d="m142.378 210.93h33.485c4.268 0 7.726-3.459 7.726-7.726s-3.459-7.726-7.726-7.726h-41.329l21.915-81.789c2.706-10.111 11.914-17.173 22.39-17.173h29.454c4.268 0 7.726-3.459 7.726-7.726s-3.459-7.726-7.726-7.726h-29.454c-17.46 0-32.805 11.773-37.317 28.628l-6.942 25.906h-30.192c-4.268 0-7.726 3.459-7.726 7.726s3.459 7.726 7.726 7.726h26.052l-45.753 170.755c-1.105 4.122 1.341 8.358 5.463 9.463.67.18 1.343.265 2.005.265 3.411 0 6.533-2.277 7.458-5.729l28.732-107.23 86.226 91.404c1.52 1.611 3.569 2.425 5.622 2.425 1.902 0 3.808-.698 5.301-2.106 3.104-2.928 3.246-7.818.319-10.922z"/></g><circle cx="424.785" cy="343.722" fill="#dbebfc" r="20.521"/><path d="m394.04 146.75v1.21c0 11-8.91 19.92-19.92 19.92h-62.14c-11.01 0-19.92-8.92-19.92-19.92v-1.21c0-11 8.91-19.92 19.92-19.92h62.14c11.01 0 19.92 8.92 19.92 19.92z" fill="#ffe177"/><path d="m364.09 167.88h-52.11c-11.01 0-19.92-8.92-19.92-19.92v-1.21c0-11 8.91-19.92 19.92-19.92h52.07l.04.01c-5.67 0-10.8 2.29-14.51 6-3.72 3.72-6.01 8.85-6.01 14.52 0 11.33 9.18 20.52 20.52 20.52z" fill="#ffd15b"/><circle cx="87.215" cy="343.722" fill="#dbebfc" r="20.521"/><circle cx="257.025" cy="323.118" fill="#dbebfc" r="41.207"/><g><path d="m257.025 402.473c-4.268 0-7.726-3.459-7.726-7.726v-70.942c0-4.267 3.459-7.726 7.726-7.726s7.726 3.459 7.726 7.726v70.942c0 4.267-3.458 7.726-7.726 7.726z" fill="#8ac9fe"/></g><path d="m233.858 430.937h46.335c3.866 0 7-3.134 7-7v-22.056c0-3.866-3.134-7-7-7h-46.335c-3.866 0-7 3.134-7 7v22.056c0 3.866 3.134 7 7 7z" fill="#528fd8"/><path d="m62.084 176.548v-66.449c0-4.623 4.283-8.024 8.8-7.041 18.53 4.031 32.407 20.528 32.407 40.265 0 19.738-13.877 36.234-32.407 40.265-4.517.984-8.8-2.418-8.8-7.04z" fill="#ffe177"/></g></svg>