<svg id="Capa_1" enable-background="new 0 0 512 512" height="512" viewBox="0 0 512 512" width="512" xmlns="http://www.w3.org/2000/svg"><g><path d="m336.419 206.667h30.905l-.064-75.211c.207-42.603-34.284-77.431-76.887-77.638 0 0-68.043-.325-68.084-.325l-.15 30.893c.041 0 68.084.337 68.084.337 25.562.124 46.256 21.021 46.132 46.583z" fill="#ecf6fe"/><g><path d="m129.781 52.225h-54.244c-4.267 0-7.726-3.459-7.726-7.726s3.459-7.726 7.726-7.726h54.243c4.267 0 7.726 3.459 7.726 7.726s-3.458 7.726-7.725 7.726z" fill="#dbebfc"/></g><g><path d="m129.781 101.811h-54.244c-4.267 0-7.726-3.459-7.726-7.726s3.459-7.726 7.726-7.726h54.243c4.267 0 7.726 3.459 7.726 7.726.001 4.267-3.458 7.726-7.725 7.726z" fill="#dbebfc"/></g><path d="m130.781 12.593h71.131c16.569 0 30 13.431 30 30v48.131c0 16.569-13.431 30-30 30h-71.131c-3.866 0-7-3.134-7-7v-94.131c0-3.866 3.134-7 7-7z" fill="#528fd8"/><path d="m175.285 12.589v108.138h-44.298c-3.983 0-7.211-3.229-7.211-7.211v-93.716c0-3.983 3.229-7.211 7.211-7.211z" fill="#0573ce"/><path d="m0 424.421v-71.771c0-17.069 13.837-30.905 30.905-30.905h50.86l136.699-109.381c10.961-8.77 24.58-13.548 38.618-13.548h151.709c28.483 0 53.278 19.463 60.042 47.131l18.957 76.409v102.067h-487.79z" fill="#c6ea7c"/><path d="m30.905 321.746h30.905c-17.07 0-30.905 13.835-30.905 30.905v61.77h-30.905v-61.77c0-17.07 13.835-30.905 30.905-30.905z" fill="#b2e254"/><path d="m287.987 198.815c-14.041 0-27.66 4.78-38.621 13.547l-136.695 109.384h-30.906l136.695-109.384c10.961-8.767 24.58-13.547 38.621-13.547z" fill="#b2e254"/><path d="m34.207 414.421h-34.207v-41.207h34.207c3.866 0 7 3.134 7 7v27.207c0 3.866-3.134 7-7 7z" fill="#fd8087"/><path d="m261.378 359.743h-48.299c-4.267 0-7.726-3.459-7.726-7.726s3.459-7.726 7.726-7.726h48.299c4.267 0 7.726 3.459 7.726 7.726s-3.459 7.726-7.726 7.726z" fill="#b2e254"/><path d="m297.719 424.729c-4.267 0-7.726-3.459-7.726-7.726v-97.563c0-4.267 3.459-7.726 7.726-7.726s7.726 3.459 7.726 7.726v97.563c0 4.267-3.459 7.726-7.726 7.726z" fill="#b2e254"/><path d="m342.532 322.354h103.91l-14.523-58.833c-3.407-13.801-15.789-23.499-30.005-23.499h-59.382z" fill="#ecf6fe"/><path d="m305.449 240.022h-50.174c-3.509 0-6.914 1.195-9.654 3.387l-98.661 78.945h158.49v-82.332z" fill="#ecf6fe"/><path d="m0 453.568v-39.147h504.789c3.983 0 7.211 3.229 7.211 7.211v31.936c0 3.983-3.229 7.211-7.211 7.211h-497.578c-3.982 0-7.211-3.228-7.211-7.211z" fill="#fef48b"/><ellipse cx="124.309" cy="444.541" fill="#528fd8" rx="54.817" ry="54.87"/><ellipse cx="400.559" cy="444.541" fill="#528fd8" rx="54.817" ry="54.87"/><g fill="#dbebfc"><ellipse cx="124.309" cy="444.541" rx="19.793" ry="19.812"/><ellipse cx="400.559" cy="444.541" rx="19.793" ry="19.812"/></g></g></svg>