<svg id="Capa_1" enable-background="new 0 0 512 512" height="512" viewBox="0 0 512 512" width="512" xmlns="http://www.w3.org/2000/svg"><g><path d="m409.95 504.389c1.005-3.308 1.542-6.819 1.542-10.452 0-19.91-16.145-36.055-36.055-36.055-7.377 0-14.237 2.222-19.95 6.018-7.844-12.451-21.706-20.732-37.506-20.732-12.34 0-24.372 5.517-32.409 13.656l-9.873 6.927.744 40.638z" fill="#c6ea7c"/><path d="m102.933 504.389c-1.005-3.308-1.542-6.819-1.542-10.452 0-19.91 16.145-36.055 36.055-36.055 7.377 0 14.237 2.222 19.95 6.018 7.844-12.451 21.706-20.732 37.506-20.732 12.34 0 23.502 5.043 31.539 13.182l9.915 4.649-.797 43.39z" fill="#c6ea7c"/><g fill="#ecf6fe"><path d="m431.108 303.303c-6.19 10.716-17.474 16.835-29.164 16.835-4.638 0-9.336-.964-13.811-2.983l-64.874-29.246-57.192-41.159c20.376-4.587 34.877-53.813 33.558-58.095l64.225 28.941 57.771 41.565c14.023 10.087 18.133 29.175 9.487 44.142z"/><path d="m245.934 246.75-57.192 41.159-64.874 29.246c-15.759 7.103-34.329 1.116-42.975-13.852-3.054-5.277-4.516-11.071-4.516-16.805 0-10.513 4.932-20.813 14.004-27.338l57.771-41.565 64.225-28.951c-1.321 4.283 13.18 53.52 33.557 58.106z"/><path d="m296.591 101.101-7.042 70.12c-8.341-9.031-58.755-9.031-67.096 0l-7.042-70.12 7.103-70.81c1.724-17.19 16.205-30.291 33.486-30.291 8.646 0 16.581 3.278 22.579 8.697 5.997 5.429 10.046 12.999 10.909 21.594z"/></g><path d="m230.063 258.177-4.506 246.212h60.886l-4.506-246.212-15.881-11.427-13.608-12.035z" fill="#528fd8"/><path d="m269.233 249.034-8.727 9.143-4.506 246.212h-30.443l4.506-246.212 22.385-23.462 13.608 12.035z" fill="#0573ce"/><circle cx="256" cy="202.202" fill="#8ac9fe" r="45.664"/><path d="m271.221 245.259c-4.759 1.695-9.884 2.608-15.221 2.608-25.217 0-45.664-20.448-45.664-45.664 0-25.217 20.448-45.664 45.664-45.664 5.338 0 10.462.913 15.221 2.608-17.738 6.261-30.443 23.177-30.443 43.057.001 19.877 12.705 36.794 30.443 43.055z" fill="#60b7ff"/><path d="m271.221 3.633c-9.935 5.054-17.089 14.897-18.266 26.658l-7.103 70.81 5.591 55.67c-11.426 1.126-21.614 6.464-28.992 14.45l-7.042-70.12 7.103-70.81c1.726-17.19 16.207-30.291 33.488-30.291 5.459 0 10.635 1.309 15.221 3.633z" fill="#dbebfc"/><path d="m210.336 202.202c0 .365 0 .72.01 1.076l-31.752 14.318-57.771 41.565c-9.072 6.525-14.004 16.825-14.004 27.338 0 5.733 1.461 11.528 4.516 16.805 3.389 5.865 8.291 10.351 13.963 13.202l-1.431.649c-15.759 7.103-34.329 1.116-42.975-13.852-3.054-5.277-4.516-11.071-4.516-16.805 0-10.513 4.932-20.813 14.004-27.338l57.771-41.565 64.225-28.951c-1.32 4.283-2.04 8.84-2.04 13.558z" fill="#dbebfc"/><path d="m421.488 313.897c-5.703 4.049-12.553 6.241-19.544 6.241-4.638 0-9.336-.964-13.811-2.983l-64.874-29.246-57.192-41.159c20.376-4.587 35.598-22.792 35.598-44.548 0-4.719-.721-9.265-2.04-13.547l42.295 19.057c-2.314 19.27-16.632 34.847-35.263 39.038l57.192 41.159z" fill="#dbebfc"/><g><g><path d="m433.452 237.785c-4.204 0-7.611-3.403-7.611-7.606 0-.395.031-.8.092-1.191 1.379-8.785 2.079-17.798 2.079-26.786 0-22.9-4.426-45.138-13.155-66.098-1.615-3.88.22-8.336 4.1-9.951 3.88-1.616 8.336.219 9.952 4.1 9.505 22.824 14.325 47.032 14.325 71.95 0 9.736-.755 19.502-2.245 29.027-.515 3.701-3.693 6.555-7.537 6.555z" fill="#8ac9fe"/></g><g><path d="m403.746 107.626c-2.412 0-4.784-1.144-6.262-3.276-19.82-28.599-47.382-50.292-79.71-62.735-3.922-1.51-5.879-5.914-4.368-9.837 1.509-3.922 5.913-5.878 9.836-4.369 35.189 13.545 65.187 37.152 86.752 68.271 2.394 3.455 1.535 8.196-1.921 10.591-1.321.916-2.831 1.355-4.327 1.355z" fill="#8ac9fe"/></g><g><path d="m197.54 379.707c-.821 0-1.654-.134-2.474-.415-20.618-7.085-39.724-17.677-56.786-31.48-3.268-2.644-3.774-7.436-1.131-10.704 2.644-3.269 7.438-3.773 10.704-1.131 15.678 12.683 33.227 22.413 52.16 28.919 3.975 1.366 6.09 5.696 4.724 9.671-1.085 3.156-4.037 5.14-7.197 5.14z" fill="#8ac9fe"/></g><g><path d="m78.548 237.785c-3.868 0-7.063-2.882-7.547-6.618-1.483-9.509-2.235-19.253-2.235-28.965 0-38.589 11.646-75.645 33.678-107.16 21.533-30.8 51.379-54.187 86.314-67.633 3.923-1.509 8.327.447 9.836 4.369 1.51 3.923-.446 8.327-4.369 9.836-65.936 25.378-110.238 89.913-110.238 160.588 0 8.986.7 17.998 2.079 26.787.061.39.092.785.092 1.18.001 4.203-3.407 7.616-7.61 7.616z" fill="#8ac9fe"/></g><g><path d="m314.46 379.707c-3.16 0-6.112-1.983-7.197-5.139-1.367-3.975.749-8.305 4.724-9.671 18.958-6.516 36.503-16.244 52.145-28.915 3.266-2.647 8.059-2.143 10.705 1.123s2.143 8.059-1.124 10.704c-17.03 13.795-36.133 24.388-56.779 31.483-.818.281-1.653.415-2.474.415z" fill="#8ac9fe"/></g><g><path d="m125.659 203.897c-.115 0-.231-.002-.347-.007-4.199-.189-7.45-3.745-7.262-7.945 2.004-44.626 25.755-85.761 63.533-110.034 3.535-2.272 8.245-1.248 10.517 2.289 2.272 3.536 1.248 8.245-2.289 10.517-33.63 21.609-54.773 58.211-56.555 97.911-.183 4.082-3.551 7.269-7.597 7.269z" fill="#8ac9fe"/></g><g><path d="m386.341 203.897c-4.046 0-7.414-3.187-7.597-7.269-1.783-39.701-22.925-76.303-56.555-97.911-3.536-2.272-4.561-6.98-2.288-10.517 2.272-3.538 6.98-4.561 10.517-2.289 37.777 24.274 61.528 65.408 63.532 110.034.189 4.199-3.062 7.756-7.261 7.945-.117.004-.233.007-.348.007z" fill="#8ac9fe"/></g></g><g><g><path d="m440.434 512h-368.868c-4.203 0-7.611-3.408-7.611-7.611s3.407-7.611 7.611-7.611h368.867c4.204 0 7.611 3.408 7.611 7.611s-3.407 7.611-7.61 7.611z" fill="#ecf6fe"/></g></g></g></svg>