<svg id="Capa_1" enable-background="new 0 0 512 512" height="512" viewBox="0 0 512 512" width="512" xmlns="http://www.w3.org/2000/svg"><g><path d="m357.547 114.679h99.657v98.812h-99.657z" fill="#ffe177"/><path d="m357.548 114.68h30v98.81h-30z" fill="#ffd15b"/><path d="m209.201 114.679-97.706.001c-38.255 0-69.267 31.012-69.267 69.267v106.177h98.812v-69.422c0-3.983 3.229-7.211 7.211-7.211h60.95z" fill="#ffe177"/><path d="m146.872 456.761c0 30.508-24.731 55.239-55.239 55.239s-55.239-24.731-55.239-55.239c0-31.861 35.856-76.429 49.792-92.547 2.87-3.32 8.025-3.32 10.895 0 13.936 16.118 49.791 60.686 49.791 92.547z" fill="#8ac9fe"/><path d="m107.087 509.806c-4.903 1.432-10.085 2.194-15.453 2.194-30.504 0-55.238-24.735-55.238-55.238 0-31.864 35.857-76.434 49.792-92.552 2.874-3.324 8.025-3.319 10.899.004 2.667 3.085 6.136 7.211 10 12.09-16.339 20.624-39.785 54.692-39.785 80.457 0 25.137 16.802 46.359 39.785 53.045z" fill="#60b7ff"/><path d="m262.672 31.932h38.103v76.186h-38.103z" fill="#ffe177"/><path d="m282.668 54.67v30.71c0 3.866 3.134 7 7 7h11.11v15.74h-38.11v-76.19h38.11v15.74h-11.11c-3.866 0-7 3.134-7 7z" fill="#ffd15b"/><path d="m472.864 262.195h19.167v-196.221h-19.167c-14.172 0-25.661 11.489-25.661 25.661v144.899c.001 14.172 11.489 25.661 25.661 25.661z" fill="#d79b7a"/><path d="m163.298 299.1c0 10.48-8.49 18.97-18.97 18.97h-105.39c-5.24 0-9.98-2.12-13.41-5.55-3.43-3.44-5.56-8.18-5.56-13.42 0-10.48 8.5-18.98 18.97-18.98h105.39c10.48 0 18.97 8.5 18.97 18.98z" fill="#d79b7a"/><path d="m90.118 318.07h-51.18c-5.24 0-9.98-2.12-13.41-5.55-3.43-3.44-5.56-8.18-5.56-13.42 0-10.48 8.5-18.98 18.97-18.98h51.1l.08.01c-10.29 0-18.64 8.34-18.64 18.64v.65c0 10.3 8.35 18.65 18.64 18.65z" fill="#d08b61"/><path d="m367.548 105.12v118.02c0 3.87-3.14 7-7 7h-154.35c-3.86 0-7-3.13-7-7v-118.02c0-3.87 3.14-7 7-7h154.35c3.86 0 7 3.13 7 7z" fill="#d79b7a"/><path d="m250.708 98.12v132.02h-44.51c-3.86 0-7-3.13-7-7v-118.02c0-3.87 3.14-7 7-7z" fill="#d08b61"/><path d="m163.005 114.68c-38.261 0-69.269 31.008-69.269 69.269v96.178h-51.509v-96.178c0-38.261 31.009-69.269 69.269-69.269z" fill="#ffd15b"/><path d="m370.938 20v1.93c0 11.05-8.95 20-20 20h-143.42c-11.58 0-20.97-9.39-20.97-20.96 0-11.58 9.39-20.97 20.97-20.97h143.42c11.05 0 20 8.95 20 20z" fill="#d79b7a"/><path d="m258.668 41.93h-51.15c-11.58 0-20.97-9.39-20.97-20.96 0-11.58 9.39-20.97 20.97-20.97h51.15c-11.38 0-20.6 9.22-20.6 20.6v.72c0 11.39 9.22 20.61 20.6 20.61z" fill="#d08b61"/></g></svg>