<svg id="Capa_1" enable-background="new 0 0 512 512" height="512" viewBox="0 0 512 512" width="512" xmlns="http://www.w3.org/2000/svg"><g><path d="m403.342 147.513h63.241l3.658 64.667-9.7 5.318 1.882 33.267 10.261 4.606 4.182 73.944-11.866 10h-54.43l-17.511-10 4.182-73.944 10.318-5.618 1.84-32.523-9.715-5.05z" fill="#ecf6fe"/><path d="m434.193 147.517-10.284 181.803h-30.85l10.283-181.803z" fill="#dbebfc"/><path d="m430.532 212.18-2.437 43.191h-30.851l2.437-43.191z" fill="#fe646f"/><path d="m470.247 212.18h-70.566l-2.437 43.191h75.44z" fill="#fd8087"/><path d="m430.532 212.18-2.437 43.191h-30.851l2.437-43.191z" fill="#fe646f"/><g fill="#8ac9fe"><path d="m489.364 329.315h-115.803v182.685h122.802v-175.685c.001-3.866-3.133-7-6.999-7z"/><path d="m215.771 329.315 107.385-67.067c4.795-2.994 11.012.453 11.012 6.106v60.961l-15.834 10h-88.667z"/><path d="m45.051 329.315 107.385-67.067c4.795-2.994 11.012.453 11.012 6.106v60.961l-13.244 10h-89.871z"/></g><path d="m383.56 345.49v149.51l-10 17h-362.78v-175.69c0-3.86 3.13-7 7-7h355.78z" fill="#ecf6fe"/><path d="m50.329 392.317h113.119v45.248h-113.119z" fill="#8ac9fe"/><path d="m50.329 392.317h30.851v45.248h-30.851z" fill="#60b7ff"/><path d="m413.429 147.513v-21.105c0-10.287-8.339-18.626-18.626-18.626h-181.757c-18.29 0-33.116 14.827-33.116 33.116 0 18.29-14.827 33.116-33.116 33.116h-102.922c-18.29 0-33.116-14.827-33.116-33.116 0-18.29 14.827-33.116 33.116-33.116h24.79c13.119 0 23.754-10.635 23.754-23.754 0-13.119-10.635-23.754-23.754-23.754h-27.77c-16.644 0-30.137-13.493-30.137-30.137.001-16.644 13.494-30.137 30.137-30.137h171.668c15.481 0 28.03 12.55 28.03 28.03 0 15.481 12.55 28.03 28.03 28.03h207.307c13.959 0 25.276 11.316 25.276 25.276v2.262c0 12.71-10.304 23.014-23.014 23.014-10.287 0-18.626 8.339-18.626 18.626v22.275z" fill="#dbebfc"/><path d="m116.329 67.234c4.299 4.299 6.962 10.232 6.962 16.793 0 13.122-10.643 23.755-23.755 23.755h-24.793c-9.152 0-17.42 3.712-23.416 9.697-5.995 5.995-9.697 14.274-9.697 23.416 0 18.294 14.818 33.123 33.113 33.123h-30.851c-18.294 0-33.113-14.829-33.113-33.123 0-9.142 3.702-17.42 9.697-23.416 5.995-5.985 14.263-9.697 23.416-9.697h24.794c13.111 0 23.755-10.633 23.755-23.755 0-6.561-2.663-12.495-6.962-16.793-4.298-4.299-10.242-6.962-16.793-6.962h-27.776c-16.639 0-30.131-13.492-30.131-30.131 0-8.319 3.373-15.857 8.823-21.318 5.45-5.45 12.988-8.823 21.308-8.823h30.85c-8.319 0-15.857 3.373-21.308 8.823-5.45 5.461-8.823 12.998-8.823 21.318 0 16.639 13.492 30.131 30.131 30.131h27.776c6.551 0 12.495 2.663 16.793 6.962z" fill="#c9e2fb"/><path d="m41.63 329.32v182.68h-30.85v-175.69c0-3.86 3.13-7 7-7h23.83z" fill="#dbebfc"/><path d="m373.561 329.32h51.418v182.68h-51.418z" fill="#60b7ff"/><g><path d="m487.894 155.226h-105.863c-4.26 0-7.713-3.453-7.713-7.713s3.453-7.713 7.713-7.713h105.862c4.26 0 7.713 3.453 7.713 7.713s-3.452 7.713-7.712 7.713z" fill="#8ac9fe"/></g><path d="m218.41 392.317h113.119v45.248h-113.119z" fill="#8ac9fe"/><path d="m218.414 392.317h30.851v45.248h-30.851z" fill="#60b7ff"/></g></svg>