<svg id="Capa_1" enable-background="new 0 0 512 512" height="512" viewBox="0 0 512 512" width="512" xmlns="http://www.w3.org/2000/svg"><g><path d="m420.14 74.683v-67.472c0-3.982-3.228-7.211-7.211-7.211h-113.59l-65.653 28.328h-131.56c-3.982 0-7.211 3.228-7.211 7.211v39.144l19.271 10h286.5z" fill="#dbebfc"/><path d="m102.123 28.328h44.295v46.355h-51.506v-39.144c0-3.982 3.228-7.211 7.211-7.211z" fill="#c9e2fb"/><path d="m420.14 84.683h-83.575v-38.796c0-3.866 3.134-7 7-7h76.575z" fill="#c9e2fb"/><path d="m382.24 512h-242.874c-3.715 0-6.822-2.823-7.178-6.52l-37.273-387.532 14.585-10h296.036l14.604 10z" fill="#c6ea7c"/><path d="m442.45 94.24v16.71c0 3.86-3.13 7-7 7h-358.9c-3.86 0-7-3.14-7-7v-16.71c0-10.8 8.76-19.56 19.56-19.56h333.78c10.8 0 19.56 8.76 19.56 19.56z" fill="#97d729"/><path d="m141.21 74.68c-11.13 0-20.15 9.03-20.15 20.15v23.12h-44.51c-3.86 0-7-3.14-7-7v-16.71c0-10.8 8.76-19.56 19.56-19.56z" fill="#92ce20"/><path d="m418.163 138.551h-263.807c-4.255 0-7.585 3.666-7.178 7.901l35.16 365.547h-42.977c-3.715 0-6.822-2.823-7.178-6.521l-37.271-387.53h325.228z" fill="#b2e254"/><g fill="#97d729"><path d="m237.17 330.042h-47.802c-2.752-.513-3.7-2.102-2.842-4.767l21.911-40.548 3.532 9.763c2.658 4.424 5.956 5.969 9.894 4.637 4.012-1.452 6.088-5.881 4.637-9.894l-9.398-25.976c-1.325-3.685-5.383-5.806-9.17-4.859l-28.09 7.146c-4.135 1.052-6.634 5.257-5.582 9.392 1.052 4.136 5.255 6.633 9.393 5.583l11.008-2.801-21.729 40.212c-3.159 5.846-3.012 12.743.391 18.45 3.402 5.706 9.401 9.114 16.045 9.114h47.802c4.267 0 7.726-3.459 7.726-7.726s-3.459-7.726-7.726-7.726z"/><path d="m346.588 316.489-25.277-43.782c-2.133-3.695-6.861-4.962-10.554-2.828-3.695 2.133-4.961 6.858-2.828 10.554l25.277 43.783c.926 2.606.05 4.219-2.628 4.841h-46.4l6.939-8.237c2.748-3.263 2.332-8.137-.932-10.886-3.265-2.751-8.138-2.332-10.887.931l-17.798 21.126c-2.502 2.949-2.373 7.62.377 10.371l20.234 20.754c3.623 3.063 7.264 3.109 10.925.138 3.055-2.979 3.118-7.87.139-10.925l-7.625-7.82h45.166c.072 0 .145-.001.217-.003 6.642-.187 12.543-3.762 15.784-9.563 3.243-5.802 3.193-12.701-.129-18.454z"/><path d="m284.01 239.319-10.222-1.823c-4.193-.747-8.213 2.049-8.962 6.249-.748 4.201 2.049 8.213 6.25 8.962l27.195 4.85c3.62.647 8.106-1.705 8.808-5.563l7.841-27.849c1.156-4.107-1.236-8.374-5.343-9.531-4.108-1.158-8.375 1.235-9.532 5.343l-3.078 10.934-23.96-38.924c-3.483-5.658-9.533-8.977-16.173-8.887-6.643.094-12.594 3.585-15.916 9.339l-24.257 42.013c-2.134 3.695-.867 8.42 2.828 10.554 3.693 2.133 8.42.868 10.554-2.828l24.257-42.013c1.82-2.127 3.67-2.153 5.549-.078z"/></g><circle cx="382.186" cy="455.344" fill="#97d729" r="56.656"/><circle cx="382.186" cy="455.344" fill="#ecf6fe" r="23.349"/></g></svg>