<svg id="Capa_1" enable-background="new 0 0 512 512" height="512" viewBox="0 0 512 512" width="512" xmlns="http://www.w3.org/2000/svg"><g><path d="m448.383 388.107c0 22.966-9.312 43.755-24.358 58.812-15.046 15.046-35.836 24.358-58.801 24.358h-93.183v-7.219c0-45.931 37.238-83.169 83.169-83.169h85.954c3.992-.001 7.219 3.237 7.219 7.218z" fill="#c6ea7c"/><path d="m393.367 380.888c-24.956 0-47.561 10.116-63.916 26.472-16.355 16.355-26.472 38.96-26.472 63.916h-30.937v-7.219c0-45.931 37.238-83.169 83.169-83.169z" fill="#b2e254"/><path d="m239.958 464.057v7.219h-93.183c-22.966 0-43.755-9.312-58.801-24.358-15.046-15.056-24.358-35.846-24.358-58.812 0-3.981 3.228-7.219 7.219-7.219h85.954c45.931.001 83.169 37.239 83.169 83.17z" fill="#c6ea7c"/><path d="m184.931 471.276h-38.156c-22.966 0-43.755-9.312-58.801-24.358-15.046-15.056-24.358-35.846-24.358-58.812 0-3.981 3.228-7.219 7.219-7.219h23.718c0 24.966 10.116 47.561 26.472 63.916 16.356 16.357 38.95 26.473 63.906 26.473z" fill="#b2e254"/><g><g><g><path d="m184.568 0h14.795c7.682 0 13.909 6.227 13.909 13.909v134.502h-42.613v-134.502c0-7.682 6.228-13.909 13.909-13.909z" fill="#dbebfc"/></g><g><path d="m312.408 0h14.795c7.682 0 13.909 6.227 13.909 13.909v134.502h-42.613v-134.502c0-7.682 6.227-13.909 13.909-13.909z" fill="#dbebfc"/></g></g></g><path d="m276.481 512v-171.519c0-.13-41.191-.13-41.191 0v171.519z" fill="#dbebfc"/><path d="m363.276 171.02v92.6c0 45.98-37.28 83.25-83.25 83.25h-48.28c-45.97 0-83.25-37.27-83.25-83.25v-92.6z" fill="#528fd8"/><g fill="#ecf6fe"><circle cx="215.007" cy="250.242" r="21.307"/><circle cx="296.764" cy="250.242" r="21.307"/></g><path d="m265.286 346.87h-33.54c-45.97 0-83.25-37.27-83.25-83.25v-82.58l.01-.02h30.93v80.01c0 47.4 38.44 85.84 85.85 85.84z" fill="#0573ce"/><path d="m381.542 181.025h-251.313c-1.794 0-3.248-1.454-3.248-3.248v-36.117c0-1.794 1.454-3.248 3.248-3.248h251.314c1.794 0 3.248 1.454 3.248 3.248v36.117c-.001 1.793-1.455 3.248-3.249 3.248z" fill="#ecf6fe"/><path d="m181.894 181.024h-51.562c-1.856 0-3.352-1.495-3.352-3.352v-35.908c0-1.856 1.495-3.352 3.352-3.352h51.562c-1.856 0-3.352 1.495-3.352 3.352v35.908c.001 1.856 1.496 3.352 3.352 3.352z" fill="#dbebfc"/></g></svg>