<svg id="Capa_1" enable-background="new 0 0 512 512" height="512" viewBox="0 0 512 512" width="512" xmlns="http://www.w3.org/2000/svg"><g><path d="m410.57 149.149-12.236 10h-285.667l-11.236-10 9.31-134.757c.56-8.104 7.297-14.392 15.42-14.392h24.043l15.796 10h184.5l11.296-10h24.043c8.123 0 14.86 6.288 15.42 14.392z" fill="#c6ea7c"/><path d="m410.57 195.52-.67 20.61-2.99 91.64-10.17 5.23-2.7 82.99 9.79 6.62-2.59 79.48c-.54 16.67-14.22 29.91-30.9 29.91h-228.68c-11.99 0-22.43-6.84-27.55-16.88-.67-1.31-1.25-2.67-1.73-4.07-.96-2.82-1.52-5.82-1.62-8.95l-2.59-79.49 9.78-6.86-2.66-81.74-10.2-6.24-3.66-112.25 22.24-10h272.66z" fill="#c6ea7c"/><path d="m132.59 223.58 9.08 279.13c.11 3.25.71 6.37 1.75 9.29h-1.76c-11.99 0-22.43-6.84-27.55-16.88-.67-1.3-1.25-2.66-1.73-4.07-.96-2.82-1.52-5.82-1.62-8.95l-2.59-79.49 9.78-6.86-2.66-81.74-10.2-6.24-3.66-112.25h309.14l-.67 20.61h-270.1c-4.08 0-7.35 3.38-7.21 7.45z" fill="#b2e254"/><path d="m335.053 307.772h71.869l-3.092 94.834h-71.869z" fill="#ecf6fe"/><path d="m105.078 307.772h71.869l3.092 94.834h-71.869z" fill="#ecf6fe"/><path d="m410.57 149.153h-309.14l9.315-134.764c.556-8.099 7.296-14.385 15.416-14.385h15.065l-8.35 120.829c-.288 4.17 3.017 7.711 7.196 7.711h269.074z" fill="#b2e254"/><g fill="#97d729"><path d="m164.917 61.344-14.713-61.344h211.591l-14.713 61.344c-.755 3.148-3.57 5.367-6.807 5.367h-168.551c-3.237 0-6.052-2.219-6.807-5.367z"/><path d="m434.483 195.52h-356.966c-3.866 0-7-3.134-7-7v-32.371c0-3.866 3.134-7 7-7h356.967c3.866 0 7 3.134 7 7v32.371c-.001 3.866-3.135 7-7.001 7z"/><path d="m171.355 443.194-5.809-178.398c-.133-4.074 3.134-7.448 7.209-7.448h166.488c4.076 0 7.342 3.374 7.209 7.448l-5.809 178.398c-.127 3.89-3.317 6.978-7.209 6.978h-154.869c-3.893 0-7.083-3.088-7.21-6.978z"/></g><path d="m202.498 450.172h-23.932c-3.892 0-7.083-3.088-7.209-6.979l-5.806-178.393c-.133-4.074 3.134-7.448 7.209-7.448h23.462z" fill="#92ce20"/></g></svg>