<svg id="Capa_1" enable-background="new 0 0 512 512" height="512" viewBox="0 0 512 512" width="512" xmlns="http://www.w3.org/2000/svg"><g><path d="m329.26 7.75v462.59h-308.45v-462.59c0-3.86 3.13-7 7-7h294.45c3.86 0 7 3.14 7 7z" fill="#fef48b"/><g><path d="m416.849 116.39v-46.385l-29.811-40.766c-5.942-8.12-4.174-19.531 3.946-25.473 8.13-5.942 19.531-4.174 25.473 3.955l33.338 45.569c2.278 3.117 3.509 6.89 3.509 10.754v52.345h-36.455z" fill="#dbebfc"/></g><path d="m473.2 228.125v145.595c0 28.48-23.18 51.66-51.67 51.66s-51.66-23.18-51.66-51.66v-55.01c0-11.48-9.34-20.82-20.82-20.82h-19.79v-30.84h19.79c28.49 0 51.66 23.17 51.66 51.66v55.01c0 11.48 9.34 20.82 20.82 20.82s20.82-9.34 20.82-20.82v-145.595z" fill="#dbebfc"/><path d="m329.26 267.05h10v30.84h-10z" fill="#c9e2fb"/><path d="m329.26 439.77v30.57h-308.45v-462.59c0-3.86 3.13-7 7-7h23.85v431.83c0 3.97 3.22 7.19 7.19 7.19z" fill="#fef056"/><path d="m61.937 163.399v-114.518c0-3.866 3.134-7 7-7h212.193c3.866 0 7 3.134 7 7v114.519c0 3.866-3.134 7-7 7h-212.193c-3.866-.001-7-3.135-7-7.001z" fill="#ecf6fe"/><path d="m288.13 160.4v3c0 3.87-3.13 7-7 7h-212.19c-3.87 0-7-3.13-7-7v-114.52c0-3.87 3.13-7 7-7h13v111.52c0 3.87 3.13 7 7 7z" fill="#dbebfc"/><path d="m243.42 170.4h-128.65c0-3.4.27-6.74.79-10h127.07c.52 3.26.79 6.6.79 10z" fill="#60b7ff"/><path d="m114.769 170.399c.041-35.502 28.819-64.259 64.331-64.259 35.502 0 64.28 28.757 64.321 64.259z" fill="#dbebfc"/><path d="m243.42 170.4h-128.65c0-3.4.27-6.74.79-10h127.07c.52 3.26.79 6.6.79 10z" fill="#c9e2fb"/><path d="m179.096 145.981c1.911 0 3.825-.706 5.318-2.129l55.985-53.34c3.083-2.938 3.201-7.819.264-10.902-2.938-3.083-7.82-3.202-10.902-.263l-55.984 53.34c-3.083 2.938-3.201 7.819-.264 10.902 1.515 1.591 3.547 2.392 5.583 2.392z" fill="#97d729"/><path d="m509.676 157.581-43.009-48.423h-55.581c-8.284 0-15 6.716-15 15v98.92c0 8.284 6.716 15 15 15h93.203c4.259 0 7.711-3.452 7.711-7.711v-67.269c0-2.077-.838-4.066-2.324-5.517zm-13.098 65.075h-29.911v-91.946l29.911 35.636z" fill="#c6ea7c"/><path d="m350.07 467.34v44.41h-350.07v-44.41c0-3.87 3.13-7 7-7h336.07c3.86 0 7 3.13 7 7z" fill="#97d729"/><path d="m51.41 460.34v51.41h-51.41v-44.41c0-3.87 3.13-7 7-7z" fill="#92ce20"/><path d="m242.73 335.47c0 34.53-25.86 63.02-59.27 67.17h-16.85c-33.41-4.15-59.27-32.64-59.27-67.17 0-5.61.36-11.05 1.02-16.33 2.64-21.09 10.14-39.52 19.21-54.9 13.04-22.13 29.33-37.94 39.04-46.23 5.13-4.38 8.43-6.66 8.43-6.66s3.29 2.28 8.42 6.66c9.71 8.29 26 24.1 39.05 46.23 9.07 15.38 16.57 33.81 19.2 54.9.66 5.28 1.02 10.72 1.02 16.33z" fill="#c6ea7c"/><path d="m185.02 402.43c-.52.07-1.04.15-1.56.21h-16.85c-33.41-4.15-59.27-32.64-59.27-67.17 0-5.61.36-11.05 1.02-16.33 2.64-21.09 10.14-39.52 19.21-54.9 13.04-22.13 29.33-37.94 39.04-46.23 5.13-4.38 8.43-6.66 8.43-6.66s3.29 2.28 8.42 6.66c.51.43 1.04.89 1.58 1.36-9.83 8.59-25.11 23.89-37.47 44.87-9.07 15.38-16.57 33.81-19.21 54.9-.66 5.28-1.02 10.72-1.02 16.33 0 33.98 25.04 62.11 57.68 66.96z" fill="#b2e254"/><path d="m214.34 346.11-31.8 19.9v36.63h-15v-36.63l-31.8-19.9c-3.51-2.19-4.58-6.82-2.38-10.33 2.19-3.51 6.82-4.58 10.33-2.38l23.85 14.91v-36.16l-23.15-14.48c-3.51-2.2-4.58-6.83-2.38-10.34s6.82-4.57 10.34-2.38l15.19 9.51v-28.03c0-4.15 3.36-7.5 7.5-7.5s7.5 3.35 7.5 7.5v28.03l15.19-9.51c3.51-2.2 8.14-1.13 10.33 2.38 2.2 3.51 1.14 8.14-2.38 10.34l-23.14 14.48v36.16l23.84-14.91c3.51-2.2 8.14-1.14 10.34 2.38 2.19 3.51 1.13 8.14-2.38 10.33z" fill="#97d729"/></g></svg>