<svg id="Capa_1" enable-background="new 0 0 512 512" height="512" viewBox="0 0 512 512" width="512" xmlns="http://www.w3.org/2000/svg"><g><path d="m315.909 0h-119.818c-3.866 0-7 3.134-7 7v104.203h133.818v-104.203c0-3.866-3.134-7-7-7z" fill="#ecf6fe"/><g fill="#dbebfc"><path d="m219.942 0v101.2h-30.854v-94.001c0-3.976 3.223-7.199 7.199-7.199z"/><path d="m277.312 111.203h-42.625v-59.722c0-3.866 3.134-7 7-7h28.625c3.866 0 7 3.134 7 7z"/><path d="m144.11 450.577h223.78v61.423h-223.78z"/></g><path d="m413.26 191.2v224.38c0 24.85-20.15 45-45 45h-224.52c-24.85 0-45-20.15-45-45v-224.38c0-49.7 40.29-90 90-90h134.52c49.71 0 90 40.3 90 90z" fill="#c6ea7c"/><path d="m196.44 460.57-.02.01h-52.68c-24.85 0-45-20.15-45-45v-224.38c0-49.7 40.29-90 90-90h53.98c-51.12 0-92.56 41.45-92.56 92.56v220.53c0 25.56 20.72 46.28 46.28 46.28z" fill="#b2e254"/><path d="m313.179 304.861c0 15.789-6.404 30.076-16.749 40.421s-24.644 16.735-40.433 16.735c-31.567 0-57.159-25.579-57.171-57.145 0-.011 0-.011 0-.023-.147-11.904 2.428-25.976 9.589-42.307l23.379 6.833c.858-45.199 42.883-61.112 42.883-61.112 1.513 14.874 5.353 29.263 13.316 42.273 5.794 9.453 11.271 17.551 17.607 26.62 5.489 7.873 7.624 18.263 7.579 27.705z" fill="#fef48b"/><path d="m284.589 333.439c0 7.895-3.202 15.038-8.374 20.211-5.173 5.173-12.322 8.368-20.216 8.368-15.783 0-28.579-12.789-28.585-28.573 0-.006 0-.006 0-.011-.073-5.952 1.214-12.988 4.794-21.154l11.689 3.416c.429-22.599 21.442-30.556 21.442-30.556.757 7.437 2.677 14.631 6.658 21.137 2.897 4.727 5.636 8.775 8.804 13.31 2.744 3.936 3.811 9.131 3.788 13.852z" fill="#fd8087"/><path d="m144.114 460.575h51.423v51.423h-51.423z" fill="#c9e2fb"/><g><g><path d="m409.755 179.989h-307.51c-4.26 0-7.713-3.453-7.713-7.713s3.453-7.713 7.713-7.713h307.509c4.26 0 7.713 3.453 7.713 7.713.001 4.26-3.452 7.713-7.712 7.713z" fill="#97d729"/></g><g><g><path d="m413.262 403.156h-226.632c-4.26 0-7.713-3.453-7.713-7.713s3.453-7.713 7.713-7.713h226.632c4.26 0 7.713 3.453 7.713 7.713s-3.453 7.713-7.713 7.713z" fill="#97d729"/></g></g><g><g><path d="m153.02 403.156h-54.282c-4.26 0-7.713-3.453-7.713-7.713s3.453-7.713 7.713-7.713h54.282c4.26 0 7.713 3.453 7.713 7.713.001 4.26-3.452 7.713-7.713 7.713z" fill="#97d729"/></g></g></g></g></svg>