<svg id="Capa_1" enable-background="new 0 0 512 512" height="512" viewBox="0 0 512 512" width="512" xmlns="http://www.w3.org/2000/svg"><g><path d="m324.498 69.03-13.913 12.453-106.053 18.7-17.026-6.998c-18.915 3.335-34.248-9.294-34.248-28.209 0-18.915 15.333-36.952 34.248-40.287l136.992-24.155c18.915-3.335 34.248 9.294 34.248 28.209 0 18.915-15.333 36.952-34.248 40.287z" fill="#ecf6fe"/><path d="m364.452 130.369-12.441 12.194-186.52 32.888-17.943-6.836c-18.915 3.335-34.248-9.294-34.248-28.209 0-18.915 15.333-36.952 34.248-40.287l216.904-38.246c18.915-3.335 34.248 9.294 34.248 28.209 0 18.915-15.333 36.952-34.248 40.287z" fill="#8ac9fe"/><path d="m278.772 272.694v94.395h51.369v-103.457z" fill="#60b7ff"/><path d="m364.454 199.089-12.32-7.828-190.171 33.532-14.413 12.541c-18.915 3.335-34.248 21.372-34.248 40.287 0 18.915 15.333 31.544 34.248 28.209l34.316-6.051-.003.006v57.303h51.369v-66.365l-.001-.001 131.222-23.138c18.915-3.335 34.248-21.372 34.248-40.287.001-18.914-15.332-31.544-34.247-28.208z" fill="#8ac9fe"/><g fill="#60b7ff"><path d="m274.18 512h-36.356c-8.284 0-15-6.716-15-15v-36.158h66.356v36.158c0 8.284-6.715 15-15 15z"/><path d="m387.667 66.851-188.668 33.266c-9.456 1.667-18.017 7.007-24.221 14.302-6.194 7.285-10.032 16.525-10.032 25.991 0 9.96 4.249 18.171 11.03 23.223l-28.224 4.98c-18.912 3.334-34.254-9.291-34.254-28.204 0-9.466 3.838-18.706 10.032-25.991 6.205-7.295 14.765-12.636 24.221-14.302l216.902-38.246c8.953-1.574 17.112.423 23.214 4.981z"/><path d="m198.999 305.834 34.233-6.04v67.292h-51.365v-62.826c3.396 1.369 7.151 2.109 11.154 2.109 1.934 0 3.94-.175 5.978-.535z"/><path d="m164.745 277.621c0 9.96 4.26 18.181 11.051 23.234l-28.245 4.98c-2.037.36-4.044.535-5.978.535-16.062 0-28.275-11.874-28.275-28.749 0-18.912 15.342-36.95 34.254-40.283l216.902-38.246c2.037-.36 4.044-.535 5.989-.535 6.585 0 12.522 1.996 17.235 5.515l-188.678 33.266c-18.913 3.333-34.255 21.37-34.255 40.283z"/></g><path d="m364.454 198.977-216.904 38.246c-18.915 3.335-34.248-9.294-34.248-28.209 0-18.915 15.333-36.952 34.248-40.287l216.904-38.246c18.915-3.335 34.248 9.294 34.248 28.209 0 18.915-15.333 36.952-34.248 40.287z" fill="#ecf6fe"/><path d="m387.667 135.461-188.668 33.266c-9.456 1.667-18.017 7.007-24.221 14.302-6.194 7.285-10.032 16.525-10.032 25.981 0 9.96 4.249 18.182 11.041 23.234l-28.234 4.98c-18.912 3.334-34.254-9.291-34.254-28.214 0-9.456 3.838-18.696 10.032-25.981 6.205-7.295 14.765-12.636 24.221-14.302l216.902-38.246c8.952-1.574 17.111.422 23.213 4.98z" fill="#dbebfc"/><path d="m347.713 5.515-108.76 19.169c-9.456 1.677-18.017 7.017-24.211 14.313-6.194 7.285-10.032 16.525-10.032 25.981 0 9.96 4.25 18.171 11.041 23.223l-28.245 4.98c-18.912 3.344-34.243-9.291-34.243-28.204 0-9.456 3.838-18.696 10.032-25.981 6.194-7.295 14.755-12.635 24.211-14.313l136.994-24.148c8.951-1.574 17.111.422 23.213 4.98z" fill="#dbebfc"/><path d="m359.33 364.09v46.75c0 33.14-26.86 60-60 60h-86.65c-33.14 0-60-26.86-60-60v-46.75c0-3.87 3.13-7 7-7h192.65c3.86 0 7 3.13 7 7z" fill="#dbebfc"/><path d="m265.07 470.84h-52.39c-33.14 0-60-26.86-60-60v-46.75c0-3.87 3.13-7 7-7h44.44v52.02c0 33.83 27.21 61.31 60.95 61.73z" fill="#c9e2fb"/><g><g><path d="m287.643 421.684h-134.967c-4.262 0-7.717-3.455-7.717-7.717 0-4.263 3.455-7.717 7.717-7.717h134.967c4.263 0 7.717 3.455 7.717 7.717s-3.455 7.717-7.717 7.717z" fill="#ecf6fe"/></g></g><g><g><g><path d="m358.743 421.684h-37.474c-4.263 0-7.717-3.455-7.717-7.717 0-4.263 3.455-7.717 7.717-7.717h37.474c4.263 0 7.717 3.455 7.717 7.717s-3.455 7.717-7.717 7.717z" fill="#ecf6fe"/></g></g></g></g></svg>