<svg id="Capa_1" enable-background="new 0 0 512 512" height="512" viewBox="0 0 512 512" width="512" xmlns="http://www.w3.org/2000/svg"><g><path d="m372.622 53.241h-233.244c-3.866 0-7 3.134-7 7v50.217h247.243v-50.217c.001-3.866-3.133-7-6.999-7z" fill="#dbebfc"/><path d="m191.099 53.238c-3.987 0-7.211 3.235-7.211 7.211v40.012h-51.509v-40.012c0-3.977 3.224-7.211 7.211-7.211z" fill="#c9e2fb"/><path d="m480.791 53.241h-47.811c-3.866 0-7 3.134-7 7v50.217h61.811v-50.217c0-3.866-3.134-7-7-7z" fill="#fd8087"/><path d="m452.98 53.24c-3.87 0-7 3.13-7 7v50.22h-20v-50.22c0-3.87 3.13-7 7-7z" fill="#fe646f"/><path d="m79.02 53.241h-47.811c-3.866 0-7 3.134-7 7v50.217h61.811v-50.217c0-3.866-3.134-7-7-7z" fill="#8ac9fe"/><path d="m51.21 53.24c-3.87 0-7 3.13-7 7v50.22h-20v-50.22c0-3.87 3.13-7 7-7z" fill="#60b7ff"/><path d="m24.209 152.268h463.581v254.683h-463.581z" fill="#ecf6fe"/><path d="m487.791 152.272v30.604h-404.861c-3.983 0-7.211 3.229-7.211 7.211v216.86h-51.51v-254.675z" fill="#dbebfc"/><path d="m512 458.762h-512v-54.811c0-3.866 3.134-7 7-7h498c3.866 0 7 3.134 7 7z" fill="#60b7ff"/><path d="m51.509 396.947v61.811h-51.509v-54.6c0-3.983 3.229-7.211 7.211-7.211z" fill="#26a6fe"/><path d="m505 162.268h-498c-3.866 0-7-3.134-7-7v-47.811c0-3.866 3.134-7 7-7h498c3.866 0 7 3.134 7 7v47.811c0 3.866-3.134 7-7 7z" fill="#60b7ff"/><path d="m51.509 100.461v61.811h-44.298c-3.983 0-7.211-3.229-7.211-7.211v-47.388c0-3.983 3.229-7.211 7.211-7.211h44.298z" fill="#26a6fe"/><g><g><g><path d="m256 334.019v-27.298c0-3.983-3.229-7.211-7.211-7.211h-41.022c-5.632 0-9.091-6.168-6.152-10.973l41.022-67.084c3.799-6.212 13.363-3.52 13.363 3.762v27.349c0 3.983 3.229 7.211 7.211 7.211h41.018c5.633 0 9.091 6.17 6.151 10.975l-41.018 67.033c-3.8 6.211-13.362 3.517-13.362-3.764z" fill="#ffe177"/></g></g></g><path d="m111.603 271.883h-17.685v-17.685c0-4.268-3.459-7.726-7.726-7.726s-7.726 3.459-7.726 7.726v17.685h-17.685c-4.267 0-7.726 3.459-7.726 7.726s3.459 7.726 7.726 7.726h17.685v17.685c0 4.268 3.459 7.726 7.726 7.726s7.726-3.459 7.726-7.726v-17.685h17.685c4.267 0 7.726-3.459 7.726-7.726s-3.459-7.726-7.726-7.726z" fill="#8ac9fe"/><path d="m451.219 271.883h-50.822c-4.267 0-7.726 3.459-7.726 7.726s3.459 7.726 7.726 7.726h50.822c4.267 0 7.726-3.459 7.726-7.726s-3.459-7.726-7.726-7.726z" fill="#fd8087"/></g></svg>