<svg id="Capa_1" enable-background="new 0 0 512 512" height="512" viewBox="0 0 512 512" width="512" xmlns="http://www.w3.org/2000/svg"><g><path d="m339.24 256c0 41.42-33.58 75-75 75-6.8 0-13.4-.91-19.66-2.61-5.03-1.36-9.85-3.23-14.39-5.56-24.31-12.4-40.95-37.67-40.95-66.83 0-41.42 33.58-75 75-75 6.69 0 13.17.88 19.34 2.52 5.09 1.35 9.96 3.23 14.56 5.57 24.39 12.37 41.1 37.69 41.1 66.91z" fill="#fef48b"/><path d="m279.237 329.5c-4.84.98-9.86 1.5-15 1.5-41.42 0-75-33.58-75-75s33.58-75 75-75c5.14 0 10.16.52 15 1.5-34.24 6.95-60 37.22-60 73.5s25.76 66.55 60 73.5z" fill="#fef056"/><path d="m465.039 245.846c31.021-45.603 38.444-87.454 20.899-117.852-1.332-2.303-2.798-4.526-4.358-6.609-2.483-3.316-7.183-3.991-10.499-1.508-3.315 2.482-3.991 7.183-1.508 10.498 1.207 1.612 2.345 3.338 3.378 5.124 14.506 25.134 7.292 61.326-20.314 101.91-1.453 2.135-2.964 4.268-4.509 6.397-17.097-20.546-37.781-40.312-61.28-58.666-3.699-26.231-9.448-51.172-17.163-73.965-.944-2.804-1.94-5.6-2.965-8.381 20.747-2.179 39.922-1.682 56.617 1.752 4.055.834 8.022-1.778 8.857-5.836s-1.778-8.022-5.835-8.857c-19.21-3.95-41.389-4.311-65.337-1.416-4.153-9.717-8.698-18.866-13.542-27.235-2.076-3.586-6.665-4.809-10.248-2.734-3.585 2.075-4.809 6.663-2.734 10.248 3.938 6.803 7.671 14.176 11.147 21.985-25.871 4.476-53.422 12.495-81.31 23.723-27.793-11.237-55.341-19.296-81.475-23.783 1.071-2.4 2.16-4.773 3.282-7.096 21.343-44.201 49.079-68.545 78.095-68.545 16.266 0 32.073 7.595 46.985 22.572 2.922 2.935 7.671 2.945 10.606.023 2.936-2.923 2.946-7.672.023-10.607-17.829-17.908-37.213-26.988-57.614-26.988-35.087 0-67.62 27.354-91.605 77.023-1.785 3.696-3.5 7.496-5.16 11.372-4.188-.501-8.338-.916-12.432-1.218-55.005-4.07-94.963 10.434-112.509 40.824-5.692 9.865-8.791 21.09-9.209 33.362-.141 4.14 3.1 7.61 7.24 7.752 4.164.148 7.61-3.101 7.751-7.24.334-9.79 2.76-18.664 7.209-26.376 14.51-25.132 49.462-36.981 98.412-33.363 2.574.19 5.174.433 7.789.706-9.173 24.849-15.963 52.701-20.13 82.349-23.585 18.426-44.303 38.224-61.233 58.583-6.777-9.302-12.615-18.598-17.376-27.771-1.907-3.676-6.435-5.108-10.112-3.201-3.676 1.908-5.11 6.435-3.202 10.111 5.727 11.034 12.781 22.12 21.005 33.122-2.517 3.363-4.94 6.736-7.24 10.117-31.021 45.605-38.444 87.456-20.903 117.848 9.188 15.912 24.444 27.477 45.345 34.372.78.258 1.572.38 2.352.38 3.148 0 6.081-1.999 7.121-5.152 1.298-3.934-.839-8.174-4.772-9.472-17.298-5.707-29.765-15.003-37.055-27.627-14.506-25.134-7.292-61.326 20.314-101.91 1.443-2.121 2.944-4.239 4.478-6.354 16.852 20.276 37.575 40.092 61.281 58.594 4.168 29.644 10.959 57.491 20.131 82.336-13.476 1.421-26.306 1.715-38.24.805-4.131-.318-7.733 2.779-8.048 6.909-.314 4.13 2.779 7.733 6.909 8.048 4.884.372 9.898.556 15.042.556 9.624 0 19.684-.66 30.065-1.92 1.665 3.89 3.386 7.703 5.177 11.412 23.985 49.669 56.518 77.023 91.605 77.023 11.396 0 22.672-2.927 33.515-8.7 3.656-1.946 5.042-6.488 3.095-10.145s-6.488-5.041-10.145-3.096c-8.65 4.605-17.554 6.94-26.465 6.94-29.016 0-56.752-24.344-78.098-68.546-1.132-2.344-2.231-4.737-3.31-7.158 25.918-4.496 53.487-12.54 81.293-23.726 28.241 11.412 55.795 19.356 81.479 23.76-4.663 10.515-9.789 20.216-15.347 28.926-2.228 3.491-1.204 8.129 2.289 10.356 1.25.798 2.646 1.179 4.027 1.179 2.475 0 4.899-1.225 6.33-3.467 6.685-10.478 12.753-22.126 18.164-34.744 10.254 1.218 20.155 1.844 29.605 1.844 42.76 0 76.437-12.537 93.268-38.18 2.273-3.463 1.309-8.112-2.154-10.385-3.463-2.274-8.113-1.309-10.386 2.154-15.646 23.837-50.925 34.728-99.344 30.651-1.743-.146-3.497-.316-5.258-.5 9.135-24.738 15.936-52.594 20.107-82.373 23.587-18.429 44.305-38.23 61.234-58.593 21.567 29.708 32.859 58.429 32.027 81.986-.146 4.14 3.091 7.613 7.23 7.76.09.003.18.005.27.005 4.02 0 7.348-3.186 7.49-7.235.997-28.225-11.893-60.791-37.376-94.722 2.524-3.371 4.955-6.754 7.262-10.145zm-113.583-141.026c1.406 3.685 2.755 7.411 4.016 11.154 5.949 17.577 10.688 36.5 14.176 56.344-13.184-9.384-27.106-18.33-41.662-26.734-14.535-8.392-29.255-15.978-43.984-22.702 23.265-8.498 46.044-14.603 67.454-18.062zm25.281 151.18c0 21.369-1.373 42.469-3.994 62.777-16.184 12.292-33.698 23.934-52.256 34.648-18.559 10.714-37.49 20.064-56.319 27.94-18.77-7.876-37.63-17.23-56.181-27.94-18.508-10.687-36.095-22.426-52.371-34.848-2.554-20.161-3.879-41.149-3.879-62.577 0-21.472 1.331-42.503 3.895-62.702 16.211-12.32 33.759-23.987 52.354-34.723 18.622-10.75 37.536-20.097 56.296-27.959 18.76 7.875 37.624 17.232 56.205 27.959 18.604 10.741 36.128 22.375 52.327 34.684 2.586 20.275 3.923 41.316 3.923 62.741zm-199.758-151.135c21.675 3.466 44.458 9.554 67.615 18.017-14.767 6.716-29.536 14.292-44.107 22.704-14.553 8.402-28.499 17.367-41.702 26.773 4.248-24.259 10.364-47.01 18.194-67.494zm-87.215 151.079c13.816-17.003 30.446-33.655 49.309-49.446-1.545 16.137-2.336 32.698-2.336 49.502 0 16.74.787 33.239 2.32 49.318-18.88-15.849-35.551-32.537-49.293-49.374zm87.205 151.166c-7.825-20.478-13.938-43.22-18.185-67.469 13.183 9.385 27.121 18.355 41.703 26.774 14.645 8.455 29.344 16.017 43.936 22.679-23.203 8.458-45.986 14.547-67.454 18.016zm174.459.008c-21.647-3.473-44.411-9.564-67.534-18.012 14.798-6.725 29.567-14.305 44.093-22.691 14.498-8.37 28.394-17.3 41.553-26.667-4.287 24.269-10.403 47.049-18.112 67.37zm37.973-101.617c1.536-16.11 2.336-32.665 2.336-49.501 0-16.784-.802-33.35-2.356-49.531 18.683 15.649 35.23 32.204 49.158 49.278.071.087.139.174.21.261-13.824 17.019-30.467 33.688-49.348 49.493z" fill="#8ac9fe"/><circle cx="453.712" cy="105.366" fill="#60b7ff" r="30"/><path d="m463.71 133.66c-3.12 1.11-6.49 1.71-10 1.71-16.57 0-30-13.44-30-30 0-16.57 13.43-30 30-30 3.51 0 6.88.6 10 1.71-11.65 4.11-20 15.23-20 28.29s8.35 24.17 20 28.29z" fill="#26a6fe"/><circle cx="46.755" cy="191.031" fill="#fd8087" r="30"/><path d="m56.76 219.31c-3.13 1.12-6.49 1.72-10 1.72-16.57 0-30-13.43-30-30s13.43-30 30-30c3.51 0 6.87.6 10 1.72-11.66 4.11-20 15.22-20 28.28s8.34 24.17 20 28.28z" fill="#fe646f"/><circle cx="314.414" cy="474.5" fill="#c6ea7c" r="30"/><path d="m324.41 502.79c-3.12 1.11-6.49 1.71-10 1.71-16.56 0-30-13.43-30-30s13.44-30 30-30c3.51 0 6.88.6 10 1.71-11.65 4.12-20 15.23-20 28.29s8.35 24.17 20 28.29z" fill="#b2e254"/><g><g><path d="m299.43 257.01-54.85 71.38c-5.03-1.36-9.85-3.23-14.39-5.56.23-.52.53-1.02.89-1.49l47.18-61.4h-43.27c-2.92 0-5.58-1.7-6.81-4.35s-.8-5.77 1.09-8l54.31-64.07c5.09 1.35 9.96 3.23 14.56 5.57-.28.63-.66 1.24-1.13 1.79l-45.83 54.06h42.31c2.85 0 5.46 1.62 6.72 4.19 1.27 2.56.96 5.62-.78 7.88z" fill="#ffe177"/></g></g></g></svg>