<svg id="Capa_1" enable-background="new 0 0 512 512" height="512" viewBox="0 0 512 512" width="512" xmlns="http://www.w3.org/2000/svg"><g><path d="m77.314 127.733h-.01l-54.301-20.985c-6.126-2.368-6.113-11.041.021-13.389l44.761-17.136h.01c-.43 3.504 9.591 7.07 9.591 10.687 0 14.766-6.568 28.661-.072 40.823z" fill="#fd8087"/><path d="m490.32 499.97c-34.42 22.38-80.46 12.63-102.84-21.79l-48.54-74.65-13.01-20 11.11-10.25 77.88.01 8.33 10.24 12.99 20 56.19 86.52c2.15 3.32 1.21 7.76-2.11 9.92z" fill="#fd8087"/><path d="m417.48 478.18-41.511-63.834c-3.028-4.657.314-10.816 5.868-10.816h54.402l-12.99-20-8.33-10.24-47.884-.006.004-.004h-30l-11.11 10.25 61.55 94.65c17.17 26.41 48.28 38.3 77.37 32.29-18.789-3.86-36.089-14.94-47.369-32.29z" fill="#fe646f"/><path d="m239.967 100.059c.651-4.288.99-8.678.99-13.148 0-48-38.911-86.911-86.911-86.911s-86.911 38.911-86.911 86.911c0 29.131 14.347 54.895 36.344 70.664v32.226c0 106.995 86.736 193.731 193.731 193.731h126.04z" fill="#ffe177"/><path d="m327.21 383.53h-30c-106.99 0-193.73-86.73-193.73-193.73v-32.22c-22-15.77-36.34-41.54-36.34-70.67 0-48 38.91-86.91 86.91-86.91 5.12 0 10.13.44 15 1.3-40.85 7.1-71.91 42.73-71.91 85.61 0 29.13 14.34 54.9 36.34 70.67v32.22c0 107 86.74 193.73 193.73 193.73z" fill="#ffd15b"/><path d="m240.179 100.025c-66.146 74.022-54.901 182.301 26.278 243.999 64.047 48.677 152.801 54.049 222.026 19.42 4.396-2.199 5.34-8.069 1.876-11.556z" fill="#60b7ff"/><path d="m408.091 385.142c-49.601 3.436-100.673-9.985-141.629-41.117-81.187-61.701-92.431-169.981-26.287-244.004l16.826 16.947c-50.699 72.835-35.495 169.92 39.687 227.058 32.664 24.824 71.747 38.385 111.403 41.116z" fill="#26a6fe"/><path d="m257.091 117.052c-19.793 64.027 1.944 135.435 62.166 181.197 45.221 34.368 102.772 47.145 157.058 39.493z" fill="#8ac9fe"/><g fill="#d79b7a"><path d="m312.996 474.372-39.077-27.972v-65.333c0-4.245-3.44-7.685-7.685-7.685s-7.685 3.44-7.685 7.685v56.064c-.418-.51-40.542-29.353-40.542-29.353v-48.878c0-4.245-3.441-7.685-7.685-7.685s-7.685 3.44-7.685 7.685v46.654l-41.997 9.275c-4.145.915-6.762 5.016-5.847 9.161 2.245 4.72 5.299 6.669 9.161 5.847l31.885-7.041-6.755 12.88c-1.971 3.758-.522 8.403 3.237 10.375 3.759 1.97 8.404.523 10.375-3.236l10.332-19.7 33.221 23.779-29.696 6.558c-4.145.915-6.762 5.016-5.847 9.161 2.245 4.72 5.299 6.669 9.161 5.847l31.886-7.041-6.756 12.881c-1.971 3.758-.522 8.403 3.237 10.375 3.758 1.97 8.404.522 10.375-3.236l10.333-19.701 35.111 25.133c3.818 2.39 7.392 1.798 10.722-1.776 2.468-3.453 1.673-8.253-1.779-10.723z"/><path d="m125.416 91.378c-4.244 0-7.685-3.441-7.685-7.685 0-4.244 3.441-7.685 7.685-7.685 4.244 0 7.685 3.441 7.685 7.685-.001 4.245-3.441 7.685-7.685 7.685z"/></g></g></svg>