<svg id="Capa_1" enable-background="new 0 0 512 512" height="512" viewBox="0 0 512 512" width="512" xmlns="http://www.w3.org/2000/svg"><g><path d="m384.934 150.912-12.498 10h-233l-12.375-10 36.103-50.857 12.272-9.17h160.5l12.896 10z" fill="#ecf6fe"/><path d="m214.738 100.053-36.102 50.863h-51.575l36.103-50.861z" fill="#dbebfc"/><path d="m286.102 0c-8.83 0-16.989 4.711-21.404 12.357l-21.749 37.67 11.986 10h33.18l11.909-10 7.48-12.956c9.514-16.476-2.377-37.071-21.402-37.071z" fill="#8ac9fe"/><path d="m348.832 100.055h-185.668v-43.028c0-3.866 3.134-7 7-7h171.668c3.866 0 7 3.134 7 7z" fill="#fd8087"/><path d="m214.738 50.026v50.027h-51.575v-42.807c0-3.988 3.233-7.22 7.22-7.22z" fill="#fe646f"/><path d="m348.832 512h-185.668l-36.103-50.027 14.375-10h228.5l14.998 10z" fill="#ecf6fe"/><path d="m214.738 512h-51.574l-36.103-50.027h51.575z" fill="#dbebfc"/><path d="m384.936 150.91v45.83l-3.771 7.093 3.771 9.737v248.4h-257.87v-246.33l5.308-6.765-5.308-13.945v-44.02z" fill="#fd8087"/><path d="m178.636 150.916v311.057h-51.575v-246.333l5.313-6.765-5.313-13.945v-44.014z" fill="#fe646f"/><circle cx="255.998" cy="320.772" fill="#fef48b" r="59.94"/><path d="m271.47 378.69c-4.931 1.32-10.119 2.022-15.472 2.022-33.101 0-59.94-26.839-59.94-59.94s26.839-59.94 59.94-59.94c5.353 0 10.542.701 15.472 2.022-25.602 6.818-44.468 30.171-44.468 57.918.001 27.747 18.867 51.1 44.468 57.918z" fill="#fef056"/><path d="m384.939 196.74v16.83c-1.77-.77-3.23-1.42-4.06-1.77-41.16-17.29-80.14-3.88-117.84 9.08-24.29 8.36-49.02 16.86-73.98 16.86-3.47 0-6.94-.16-10.42-.52-17.11-1.72-34.32-7.99-51.57-21.58v-20.71c1.7 1.71 3.26 3.23 4.08 3.96 15.93 14.19 31.61 20.88 47.49 22.83 25.32 3.12 51.16-5.77 79.37-15.47 39.89-13.72 81.11-27.89 126.93-9.51z" fill="#8ac9fe"/><path d="m178.639 221.72v15.5c-17.11-1.72-34.32-7.99-51.57-21.58v-20.71c1.7 1.71 3.26 3.23 4.08 3.96 15.93 14.19 31.61 20.88 47.49 22.83z" fill="#60b7ff"/></g></svg>