<svg id="Capa_1" enable-background="new 0 0 512 512" height="512" viewBox="0 0 512 512" width="512" xmlns="http://www.w3.org/2000/svg"><g><path d="m118.299 38.419h43.268v71.509h-43.268z" fill="#8ac9fe"/><path d="m161.57 89.93v20h-43.27v-71.51h20v44.51c0 3.866 3.134 7 7 7z" fill="#60b7ff"/><path d="m179.291 48.419h-78.716c-3.866 0-7-3.134-7-7v-19.208c0-8.284 6.716-15 15-15h62.716c8.284 0 15 6.716 15 15v19.207c0 3.867-3.134 7.001-7 7.001z" fill="#60b7ff"/><path d="m130.57 48.42h-30c-3.86 0-7-3.14-7-7v-19.21c0-8.28 6.72-15 15-15h30c-8.28 0-15 6.72-15 15v19.21c0 3.86 3.14 7 7 7z" fill="#26a6fe"/><path d="m405.38 30.91v79.02h-41.21v-53.27c0-8.53-6.92-15.45-15.45-15.45h-32.28c-11.57 0-22.17 6.46-27.47 16.74l-16.49 31.98-5.15 10-5.663 10h-34.333l-6.363-10 5.16-10 29.09-56.44c10.599-20.57 31.799-33.49 54.939-33.49h64.31c17.07 0 30.91 13.84 30.91 30.91z" fill="#60b7ff"/><path d="m441.43 129.93v352.07c0 16.57-13.43 30-30 30h-310.86c-16.57 0-30-13.43-30-30v-352.07c0-16.57 13.43-30 30-30h310.86c16.57 0 30 13.43 30 30z" fill="#8ac9fe"/><path d="m226.13 89.93h46.35l-5.15 10h-46.36z" fill="#26a6fe"/><path d="m364.17 89.93h41.21v10h-41.21z" fill="#26a6fe"/><path d="m132.38 512h-31.81c-16.57 0-30-13.43-30-30v-352.07c0-16.57 13.43-30 30-30h31.81c-17.07 0-30.91 13.83-30.91 30.9v350.26c0 17.07 13.84 30.91 30.91 30.91z" fill="#60b7ff"/><path d="m122.076 453.491v-295.054c0-3.866 3.134-7 7-7h253.847c3.866 0 7 3.134 7 7v295.054c0 3.866-3.134 7-7 7h-253.847c-3.866 0-7-3.134-7-7z" fill="#60b7ff"/><path d="m152.982 151.437v309.054h-23.905c-3.866 0-7-3.134-7-7v-295.054c0-3.866 3.134-7 7-7z" fill="#26a6fe"/><path d="m283.525 305.964 56.343-63.602c7.545-8.517 6.758-21.539-1.76-29.085-8.518-7.544-21.538-6.758-29.085 1.761l-53.023 59.854-53.023-59.854c-7.546-8.518-20.567-9.306-29.085-1.761s-9.305 20.567-1.76 29.085l56.343 63.602-56.343 63.602c-7.545 8.517-6.758 21.539 1.76 29.085 3.922 3.474 8.797 5.181 13.655 5.181 5.692 0 11.359-2.346 15.43-6.942l53.023-59.855 53.023 59.854c4.072 4.597 9.737 6.942 15.43 6.942 4.857 0 9.733-1.707 13.655-5.181 8.518-7.545 9.305-20.567 1.76-29.085z" fill="#8ac9fe"/></g></svg>